<svg xmlns="http://www.w3.org/2000/svg" width="960" height="532" viewBox="0 0 960 532" fill="none" role="img" aria-labelledby="title desc" direction="rtl">
<title id="title">خريطة المكدس التقني</title>
<desc id="desc">أربع قدرات · دورة تسليم واحدة</desc>
<defs><linearGradient id="bg" x1="0" y1="0" x2="960" y2="532" gradientUnits="userSpaceOnUse"><stop stop-color="#11101B"/><stop offset="1" stop-color="#0C151A"/></linearGradient><linearGradient id="accent" x1="28" y1="0" x2="932" y2="0" gradientUnits="userSpaceOnUse"><stop stop-color="#A78BFA"/><stop offset=".5" stop-color="#67E8F9"/><stop offset="1" stop-color="#A7F3D0"/></linearGradient></defs>
<rect x=".5" y=".5" width="959" height="531" rx="24" fill="url(#bg)" stroke="#2B3141"/><path d="M28 78H932" stroke="url(#accent)" stroke-opacity=".45"/>
<text x="928" y="43" fill="#F5F3FF" font-family="Noto Naskh Arabic, Noto Sans Arabic, Segoe UI, Arial, sans-serif" font-size="18.55" font-weight="700" text-anchor="start" direction="rtl" unicode-bidi="plaintext">خريطة المكدس التقني</text>
<text x="928" y="65" fill="#918BAA" font-family="Noto Naskh Arabic, Noto Sans Arabic, Segoe UI, Arial, sans-serif" font-size="7" font-weight="400" text-anchor="start" direction="rtl" unicode-bidi="plaintext" letter-spacing=".35">أربع قدرات · دورة تسليم واحدة</text>
<g><rect x="836" y="23" width="96" height="30" rx="15" fill="#101827" stroke="#344056"/><path d="M852 38H916" stroke="#4F6178" stroke-width="1.25"/><circle cx="842" cy="38" r="5" fill="#67E8F9"/><circle cx="916" cy="38" r="3" fill="#F9A8D4"/></g>
<rect x="492" y="98" width="440" height="186" rx="18" fill="#151222" stroke="#A78BFA" stroke-opacity=".45" stroke-width="1"/>
<circle cx="903" cy="127" r="13" fill="#A78BFA" fill-opacity=".16"/><path d="M898 127h10M903 122v10" stroke="#C4B5FD" stroke-width="1.5" stroke-linecap="round"/>
<text x="912" y="123" fill="#F5F3FF" font-family="Noto Naskh Arabic, Noto Sans Arabic, Segoe UI, Arial, sans-serif" font-size="16" font-weight="700" text-anchor="start" direction="rtl" unicode-bidi="plaintext">الأساس</text>
<text x="912" y="143" fill="#928BAA" font-family="Noto Naskh Arabic, Noto Sans Arabic, Segoe UI, Arial, sans-serif" font-size="10" font-weight="400" text-anchor="start" direction="rtl" unicode-bidi="plaintext" letter-spacing=".25">اللغات والترميز</text>
<rect x="512" y="164" width="88" height="23" rx="7" fill="#111827" stroke="#A78BFA" stroke-opacity=".24"/>
<text x="556" y="179" fill="#EDE9FE" font-family="Noto Sans, Segoe UI, Arial, sans-serif" font-size="10" font-weight="700" text-anchor="middle">TypeScript</text>
<rect x="608" y="164" width="88" height="23" rx="7" fill="#111827" stroke="#A78BFA" stroke-opacity=".24"/>
<text x="652" y="179" fill="#EDE9FE" font-family="Noto Sans, Segoe UI, Arial, sans-serif" font-size="10" font-weight="700" text-anchor="middle">JavaScript</text>
<rect x="704" y="164" width="60" height="23" rx="7" fill="#111827" stroke="#A78BFA" stroke-opacity=".24"/>
<text x="734" y="179" fill="#EDE9FE" font-family="Noto Sans, Segoe UI, Arial, sans-serif" font-size="10" font-weight="700" text-anchor="middle">Python</text>
<rect x="772" y="164" width="36" height="23" rx="7" fill="#111827" stroke="#A78BFA" stroke-opacity=".24"/>
<text x="790" y="179" fill="#EDE9FE" font-family="Noto Sans, Segoe UI, Arial, sans-serif" font-size="10" font-weight="700" text-anchor="middle">Go</text>
<rect x="816" y="164" width="46" height="23" rx="7" fill="#111827" stroke="#A78BFA" stroke-opacity=".24"/>
<text x="839" y="179" fill="#EDE9FE" font-family="Noto Sans, Segoe UI, Arial, sans-serif" font-size="10" font-weight="700" text-anchor="middle">Java</text>
<rect x="870" y="164" width="36" height="23" rx="7" fill="#111827" stroke="#A78BFA" stroke-opacity=".24"/>
<text x="888" y="179" fill="#EDE9FE" font-family="Noto Sans, Segoe UI, Arial, sans-serif" font-size="10" font-weight="700" text-anchor="middle">C#</text>
<rect x="512" y="196" width="39" height="23" rx="7" fill="#111827" stroke="#A78BFA" stroke-opacity=".24"/>
<text x="531.5" y="211" fill="#EDE9FE" font-family="Noto Sans, Segoe UI, Arial, sans-serif" font-size="10" font-weight="700" text-anchor="middle">C++</text>
<rect x="559" y="196" width="36" height="23" rx="7" fill="#111827" stroke="#A78BFA" stroke-opacity=".24"/>
<text x="577" y="211" fill="#EDE9FE" font-family="Noto Sans, Segoe UI, Arial, sans-serif" font-size="10" font-weight="700" text-anchor="middle">C</text>
<rect x="603" y="196" width="39" height="23" rx="7" fill="#111827" stroke="#A78BFA" stroke-opacity=".24"/>
<text x="622.5" y="211" fill="#EDE9FE" font-family="Noto Sans, Segoe UI, Arial, sans-serif" font-size="10" font-weight="700" text-anchor="middle">PHP</text>
<rect x="650" y="196" width="46" height="23" rx="7" fill="#111827" stroke="#A78BFA" stroke-opacity=".24"/>
<text x="673" y="211" fill="#EDE9FE" font-family="Noto Sans, Segoe UI, Arial, sans-serif" font-size="10" font-weight="700" text-anchor="middle">Rust</text>
<rect x="704" y="196" width="46" height="23" rx="7" fill="#111827" stroke="#A78BFA" stroke-opacity=".24"/>
<text x="727" y="211" fill="#EDE9FE" font-family="Noto Sans, Segoe UI, Arial, sans-serif" font-size="10" font-weight="700" text-anchor="middle">Bash</text>
<rect x="758" y="196" width="46" height="23" rx="7" fill="#111827" stroke="#A78BFA" stroke-opacity=".24"/>
<text x="781" y="211" fill="#EDE9FE" font-family="Noto Sans, Segoe UI, Arial, sans-serif" font-size="10" font-weight="700" text-anchor="middle">HTML</text>
<rect x="812" y="196" width="39" height="23" rx="7" fill="#111827" stroke="#A78BFA" stroke-opacity=".24"/>
<text x="831.5" y="211" fill="#EDE9FE" font-family="Noto Sans, Segoe UI, Arial, sans-serif" font-size="10" font-weight="700" text-anchor="middle">CSS</text>
<rect x="859" y="196" width="39" height="23" rx="7" fill="#111827" stroke="#A78BFA" stroke-opacity=".24"/>
<text x="878.5" y="211" fill="#EDE9FE" font-family="Noto Sans, Segoe UI, Arial, sans-serif" font-size="10" font-weight="700" text-anchor="middle">SQL</text>
<path d="M512 262H912" stroke="#A78BFA" stroke-opacity=".28" stroke-width="1.25"/>
<rect x="28" y="98" width="440" height="186" rx="18" fill="#101B22" stroke="#67E8F9" stroke-opacity=".45" stroke-width="1"/>
<circle cx="439" cy="127" r="13" fill="#67E8F9" fill-opacity=".16"/><path d="M434 127h10M439 122v10" stroke="#A5F3FC" stroke-width="1.5" stroke-linecap="round"/>
<text x="448" y="123" fill="#F5F3FF" font-family="Noto Naskh Arabic, Noto Sans Arabic, Segoe UI, Arial, sans-serif" font-size="16" font-weight="700" text-anchor="start" direction="rtl" unicode-bidi="plaintext">تجارب المنتج</text>
<text x="448" y="143" fill="#83A2AC" font-family="Noto Naskh Arabic, Noto Sans Arabic, Segoe UI, Arial, sans-serif" font-size="7" font-weight="400" text-anchor="start" direction="rtl" unicode-bidi="plaintext" letter-spacing=".25">الواجهات والتغذية الراجعة</text>
<rect x="48" y="164" width="53" height="23" rx="7" fill="#111827" stroke="#67E8F9" stroke-opacity=".24"/>
<text x="74.5" y="179" fill="#EDE9FE" font-family="Noto Sans, Segoe UI, Arial, sans-serif" font-size="10" font-weight="700" text-anchor="middle">React</text>
<rect x="109" y="164" width="67" height="23" rx="7" fill="#111827" stroke="#67E8F9" stroke-opacity=".24"/>
<text x="142.5" y="179" fill="#EDE9FE" font-family="Noto Sans, Segoe UI, Arial, sans-serif" font-size="10" font-weight="700" text-anchor="middle">Next.js</text>
<rect x="184" y="164" width="46" height="23" rx="7" fill="#111827" stroke="#67E8F9" stroke-opacity=".24"/>
<text x="207" y="179" fill="#EDE9FE" font-family="Noto Sans, Segoe UI, Arial, sans-serif" font-size="10" font-weight="700" text-anchor="middle">Vite</text>
<rect x="238" y="164" width="102" height="23" rx="7" fill="#111827" stroke="#67E8F9" stroke-opacity=".24"/>
<text x="289" y="179" fill="#EDE9FE" font-family="Noto Sans, Segoe UI, Arial, sans-serif" font-size="10" font-weight="700" text-anchor="middle">Tailwind CSS</text>
<rect x="348" y="164" width="53" height="23" rx="7" fill="#111827" stroke="#67E8F9" stroke-opacity=".24"/>
<text x="374.5" y="179" fill="#EDE9FE" font-family="Noto Sans, Segoe UI, Arial, sans-serif" font-size="10" font-weight="700" text-anchor="middle">Figma</text>
<rect x="48" y="196" width="60" height="23" rx="7" fill="#111827" stroke="#67E8F9" stroke-opacity=".24"/>
<text x="78" y="211" fill="#EDE9FE" font-family="Noto Sans, Segoe UI, Arial, sans-serif" font-size="10" font-weight="700" text-anchor="middle">Vercel</text>
<path d="M48 262H448" stroke="#67E8F9" stroke-opacity=".28" stroke-width="1.25"/>
<rect x="492" y="304" width="440" height="186" rx="18" fill="#151320" stroke="#F9A8D4" stroke-opacity=".45" stroke-width="1"/>
<circle cx="903" cy="333" r="13" fill="#F9A8D4" fill-opacity=".16"/><path d="M898 333h10M903 328v10" stroke="#FBCFE8" stroke-width="1.5" stroke-linecap="round"/>
<text x="912" y="329" fill="#F5F3FF" font-family="Noto Naskh Arabic, Noto Sans Arabic, Segoe UI, Arial, sans-serif" font-size="16" font-weight="700" text-anchor="start" direction="rtl" unicode-bidi="plaintext">أنظمة مترابطة</text>
<text x="912" y="349" fill="#A694AF" font-family="Noto Naskh Arabic, Noto Sans Arabic, Segoe UI, Arial, sans-serif" font-size="8.2" font-weight="400" text-anchor="start" direction="rtl" unicode-bidi="plaintext" letter-spacing=".25">API والبيانات والأتمتة</text>
<rect x="512" y="370" width="67" height="23" rx="7" fill="#111827" stroke="#F9A8D4" stroke-opacity=".24"/>
<text x="545.5" y="385" fill="#EDE9FE" font-family="Noto Sans, Segoe UI, Arial, sans-serif" font-size="10" font-weight="700" text-anchor="middle">Node.js</text>
<rect x="587" y="370" width="67" height="23" rx="7" fill="#111827" stroke="#F9A8D4" stroke-opacity=".24"/>
<text x="620.5" y="385" fill="#EDE9FE" font-family="Noto Sans, Segoe UI, Arial, sans-serif" font-size="10" font-weight="700" text-anchor="middle">Express</text>
<rect x="662" y="370" width="67" height="23" rx="7" fill="#111827" stroke="#F9A8D4" stroke-opacity=".24"/>
<text x="695.5" y="385" fill="#EDE9FE" font-family="Noto Sans, Segoe UI, Arial, sans-serif" font-size="10" font-weight="700" text-anchor="middle">FastAPI</text>
<rect x="737" y="370" width="53" height="23" rx="7" fill="#111827" stroke="#F9A8D4" stroke-opacity=".24"/>
<text x="763.5" y="385" fill="#EDE9FE" font-family="Noto Sans, Segoe UI, Arial, sans-serif" font-size="10" font-weight="700" text-anchor="middle">Flask</text>
<rect x="798" y="370" width="60" height="23" rx="7" fill="#111827" stroke="#F9A8D4" stroke-opacity=".24"/>
<text x="828" y="385" fill="#EDE9FE" font-family="Noto Sans, Segoe UI, Arial, sans-serif" font-size="10" font-weight="700" text-anchor="middle">Django</text>
<rect x="512" y="402" width="67" height="23" rx="7" fill="#111827" stroke="#F9A8D4" stroke-opacity=".24"/>
<text x="545.5" y="417" fill="#EDE9FE" font-family="Noto Sans, Segoe UI, Arial, sans-serif" font-size="10" font-weight="700" text-anchor="middle">GraphQL</text>
<rect x="587" y="402" width="88" height="23" rx="7" fill="#111827" stroke="#F9A8D4" stroke-opacity=".24"/>
<text x="631" y="417" fill="#EDE9FE" font-family="Noto Sans, Segoe UI, Arial, sans-serif" font-size="10" font-weight="700" text-anchor="middle">PostgreSQL</text>
<rect x="683" y="402" width="53" height="23" rx="7" fill="#111827" stroke="#F9A8D4" stroke-opacity=".24"/>
<text x="709.5" y="417" fill="#EDE9FE" font-family="Noto Sans, Segoe UI, Arial, sans-serif" font-size="10" font-weight="700" text-anchor="middle">MySQL</text>
<rect x="744" y="402" width="67" height="23" rx="7" fill="#111827" stroke="#F9A8D4" stroke-opacity=".24"/>
<text x="777.5" y="417" fill="#EDE9FE" font-family="Noto Sans, Segoe UI, Arial, sans-serif" font-size="10" font-weight="700" text-anchor="middle">MongoDB</text>
<rect x="819" y="402" width="53" height="23" rx="7" fill="#111827" stroke="#F9A8D4" stroke-opacity=".24"/>
<text x="845.5" y="417" fill="#EDE9FE" font-family="Noto Sans, Segoe UI, Arial, sans-serif" font-size="10" font-weight="700" text-anchor="middle">Redis</text>
<rect x="512" y="434" width="60" height="23" rx="7" fill="#111827" stroke="#F9A8D4" stroke-opacity=".24"/>
<text x="542" y="449" fill="#EDE9FE" font-family="Noto Sans, Segoe UI, Arial, sans-serif" font-size="10" font-weight="700" text-anchor="middle">Prisma</text>
<rect x="580" y="434" width="39" height="23" rx="7" fill="#111827" stroke="#F9A8D4" stroke-opacity=".24"/>
<text x="599.5" y="449" fill="#EDE9FE" font-family="Noto Sans, Segoe UI, Arial, sans-serif" font-size="10" font-weight="700" text-anchor="middle">MCP</text>
<path d="M512 468H912" stroke="#F9A8D4" stroke-opacity=".28" stroke-width="1.25"/>
<rect x="28" y="304" width="440" height="186" rx="18" fill="#101A1B" stroke="#A7F3D0" stroke-opacity=".45" stroke-width="1"/>
<circle cx="439" cy="333" r="13" fill="#A7F3D0" fill-opacity=".16"/><path d="M434 333h10M439 328v10" stroke="#BBF7D0" stroke-width="1.5" stroke-linecap="round"/>
<text x="448" y="329" fill="#F5F3FF" font-family="Noto Naskh Arabic, Noto Sans Arabic, Segoe UI, Arial, sans-serif" font-size="16" font-weight="700" text-anchor="start" direction="rtl" unicode-bidi="plaintext">التسليم</text>
<text x="448" y="349" fill="#89AAA4" font-family="Noto Naskh Arabic, Noto Sans Arabic, Segoe UI, Arial, sans-serif" font-size="9.55" font-weight="400" text-anchor="start" direction="rtl" unicode-bidi="plaintext" letter-spacing=".25">الموثوقية والعمليات</text>
<rect x="48" y="370" width="60" height="23" rx="7" fill="#111827" stroke="#A7F3D0" stroke-opacity=".24"/>
<text x="78" y="385" fill="#EDE9FE" font-family="Noto Sans, Segoe UI, Arial, sans-serif" font-size="10" font-weight="700" text-anchor="middle">Docker</text>
<rect x="116" y="370" width="88" height="23" rx="7" fill="#111827" stroke="#A7F3D0" stroke-opacity=".24"/>
<text x="160" y="385" fill="#EDE9FE" font-family="Noto Sans, Segoe UI, Arial, sans-serif" font-size="10" font-weight="700" text-anchor="middle">Kubernetes</text>
<rect x="212" y="370" width="39" height="23" rx="7" fill="#111827" stroke="#A7F3D0" stroke-opacity=".24"/>
<text x="231.5" y="385" fill="#EDE9FE" font-family="Noto Sans, Segoe UI, Arial, sans-serif" font-size="10" font-weight="700" text-anchor="middle">AWS</text>
<rect x="259" y="370" width="102" height="23" rx="7" fill="#111827" stroke="#A7F3D0" stroke-opacity=".24"/>
<text x="310" y="385" fill="#EDE9FE" font-family="Noto Sans, Segoe UI, Arial, sans-serif" font-size="10" font-weight="700" text-anchor="middle">Google Cloud</text>
<rect x="369" y="370" width="53" height="23" rx="7" fill="#111827" stroke="#A7F3D0" stroke-opacity=".24"/>
<text x="395.5" y="385" fill="#EDE9FE" font-family="Noto Sans, Segoe UI, Arial, sans-serif" font-size="10" font-weight="700" text-anchor="middle">Azure</text>
<rect x="48" y="402" width="88" height="23" rx="7" fill="#111827" stroke="#A7F3D0" stroke-opacity=".24"/>
<text x="92" y="417" fill="#EDE9FE" font-family="Noto Sans, Segoe UI, Arial, sans-serif" font-size="10" font-weight="700" text-anchor="middle">Cloudflare</text>
<rect x="144" y="402" width="53" height="23" rx="7" fill="#111827" stroke="#A7F3D0" stroke-opacity=".24"/>
<text x="170.5" y="417" fill="#EDE9FE" font-family="Noto Sans, Segoe UI, Arial, sans-serif" font-size="10" font-weight="700" text-anchor="middle">Nginx</text>
<rect x="205" y="402" width="53" height="23" rx="7" fill="#111827" stroke="#A7F3D0" stroke-opacity=".24"/>
<text x="231.5" y="417" fill="#EDE9FE" font-family="Noto Sans, Segoe UI, Arial, sans-serif" font-size="10" font-weight="700" text-anchor="middle">Linux</text>
<rect x="266" y="402" width="116" height="23" rx="7" fill="#111827" stroke="#A7F3D0" stroke-opacity=".24"/>
<text x="324" y="417" fill="#EDE9FE" font-family="Noto Sans, Segoe UI, Arial, sans-serif" font-size="10" font-weight="700" text-anchor="middle">GitHub Actions</text>
<rect x="48" y="434" width="81" height="23" rx="7" fill="#111827" stroke="#A7F3D0" stroke-opacity=".24"/>
<text x="88.5" y="449" fill="#EDE9FE" font-family="Noto Sans, Segoe UI, Arial, sans-serif" font-size="10" font-weight="700" text-anchor="middle">Terraform</text>
<rect x="137" y="434" width="39" height="23" rx="7" fill="#111827" stroke="#A7F3D0" stroke-opacity=".24"/>
<text x="156.5" y="449" fill="#EDE9FE" font-family="Noto Sans, Segoe UI, Arial, sans-serif" font-size="10" font-weight="700" text-anchor="middle">Git</text>
<rect x="184" y="434" width="60" height="23" rx="7" fill="#111827" stroke="#A7F3D0" stroke-opacity=".24"/>
<text x="214" y="449" fill="#EDE9FE" font-family="Noto Sans, Segoe UI, Arial, sans-serif" font-size="10" font-weight="700" text-anchor="middle">GitLab</text>
<path d="M48 468H448" stroke="#A7F3D0" stroke-opacity=".28" stroke-width="1.25"/>
<path d="M28 506H932" stroke="#344056"/><circle cx="904" cy="516" r="4" fill="#A7F3D0"/>
<text x="884" y="520" fill="#B4B1C5" font-family="Noto Naskh Arabic, Noto Sans Arabic, Segoe UI, Arial, sans-serif" font-size="7" font-weight="700" text-anchor="start" direction="rtl" unicode-bidi="plaintext" letter-spacing=".28">الأساس ← المنتج ← الأنظمة ← التسليم</text>
</svg>