<svg xmlns="http://www.w3.org/2000/svg" width="960" height="252" viewBox="0 0 960 252" fill="none" role="img" aria-labelledby="title desc">
  <title id="title">Toolbox</title>
  <desc id="desc">A practical toolset organized into writing code, building interfaces, connecting systems, and shipping software.</desc>
  <defs>
    <linearGradient id="surface" x1="0" y1="0" x2="960" y2="252" gradientUnits="userSpaceOnUse">
      <stop stop-color="#14111F"/>
      <stop offset=".55" stop-color="#101720"/>
      <stop offset="1" stop-color="#0D1919"/>
    </linearGradient>
    <linearGradient id="rule" x1="28" y1="0" x2="932" y2="0" gradientUnits="userSpaceOnUse">
      <stop stop-color="#A78BFA" stop-opacity=".7"/>
      <stop offset=".52" stop-color="#67E8F9" stop-opacity=".55"/>
      <stop offset="1" stop-color="#A7F3D0" stop-opacity=".5"/>
    </linearGradient>
  </defs>
  <rect x=".5" y=".5" width="959" height="251" rx="22" fill="url(#surface)" stroke="#31364A"/>
  <path d="M28 76H932" stroke="url(#rule)" stroke-width="1.25"/>
  <g font-family="ui-monospace, SFMono-Regular, Menlo, Consolas, monospace">
    <text x="30" y="39" fill="#F5F3FF" font-size="18" font-weight="700">TOOLBOX</text>
    <text x="30" y="61" fill="#A7A2B7" font-size="11" letter-spacing=".7">A WORKING SET, ARRANGED AROUND HOW THE WORK MOVES</text>
    <rect x="760" y="23" width="172" height="30" rx="15" fill="#121A26" stroke="#344056"/>
    <circle cx="781" cy="38" r="4" fill="#F9A8D4"/>
    <text x="796" y="42" fill="#D9E4F5" font-size="10" font-weight="700">12 CORE TOOLS</text>

    <rect x="28" y="91" width="212" height="134" rx="16" fill="#151527" stroke="#39345A"/>
    <text x="46" y="119" fill="#C4B5FD" font-size="11" font-weight="700" letter-spacing="1.4">WRITE</text>
    <text x="46" y="136" fill="#9290A8" font-size="9">LANGUAGES &amp; SCRIPTING</text>
    <rect x="46" y="150" width="150" height="22" rx="7" fill="#212142"/><text x="57" y="165" fill="#D8D6FF" font-size="10" font-weight="700">TypeScript</text>
    <rect x="46" y="176" width="150" height="22" rx="7" fill="#2A2035"/><text x="57" y="191" fill="#F5D2FF" font-size="10" font-weight="700">JavaScript</text>
    <rect x="46" y="202" width="150" height="22" rx="7" fill="#172D3B"/><text x="57" y="217" fill="#BCEBFF" font-size="10" font-weight="700">Python</text>

    <rect x="252" y="91" width="212" height="134" rx="16" fill="#111B25" stroke="#284754"/>
    <text x="270" y="119" fill="#A5F3FC" font-size="11" font-weight="700" letter-spacing="1.4">BUILD</text>
    <text x="270" y="136" fill="#8DA4B2" font-size="9">RUNTIME &amp; INTERFACES</text>
    <rect x="270" y="150" width="150" height="22" rx="7" fill="#173124"/><text x="281" y="165" fill="#C9F6D4" font-size="10" font-weight="700">Node.js</text>
    <rect x="270" y="176" width="150" height="22" rx="7" fill="#19323A"/><text x="281" y="191" fill="#BDEFFF" font-size="10" font-weight="700">React</text>
    <rect x="270" y="202" width="150" height="22" rx="7" fill="#26262E"/><text x="281" y="217" fill="#EEEEF3" font-size="10" font-weight="700">Next.js</text>

    <rect x="476" y="91" width="212" height="134" rx="16" fill="#141A1E" stroke="#315154"/>
    <text x="494" y="119" fill="#A7F3D0" font-size="11" font-weight="700" letter-spacing="1.4">CONNECT</text>
    <text x="494" y="136" fill="#91AAA7" font-size="9">SERVICES &amp; WORKFLOWS</text>
    <rect x="494" y="150" width="150" height="22" rx="7" fill="#18323A"/><text x="505" y="165" fill="#B9EEFF" font-size="10" font-weight="700">REST API</text>
    <rect x="494" y="176" width="150" height="22" rx="7" fill="#1F2E2A"/><text x="505" y="191" fill="#C6F5D5" font-size="10" font-weight="700">SQL</text>
    <rect x="494" y="202" width="150" height="22" rx="7" fill="#24203B"/><text x="505" y="217" fill="#DDD3FF" font-size="10" font-weight="700">MCP</text>

    <rect x="700" y="91" width="232" height="134" rx="16" fill="#17181E" stroke="#46444F"/>
    <text x="718" y="119" fill="#F9A8D4" font-size="11" font-weight="700" letter-spacing="1.4">SHIP</text>
    <text x="718" y="136" fill="#A9A5B2" font-size="9">VERSIONING &amp; DELIVERY</text>
    <rect x="718" y="150" width="170" height="22" rx="7" fill="#23242B"/><text x="729" y="165" fill="#F1F1F5" font-size="10" font-weight="700">Git / GitHub</text>
    <rect x="718" y="176" width="170" height="22" rx="7" fill="#152B38"/><text x="729" y="191" fill="#BEEAFF" font-size="10" font-weight="700">Docker</text>
    <rect x="718" y="202" width="170" height="22" rx="7" fill="#211F35"/><text x="729" y="217" fill="#DDD5FF" font-size="10" font-weight="700">GitHub Actions</text>
  </g>
</svg>
